<svg width="74" height="74" viewBox="0 0 74 74" fill="none" xmlns="http://www.w3.org/2000/svg">
<g clip-path="url(#clip0_1_4)">
<rect width="74" height="74" rx="20" fill="#FFAFBE"/>
<circle cx="27.5" cy="22.5" r="9.5" fill="#EC4899"/>
<path d="M17.6185 49.393L-1.48354 55.704C-6.77416 57.4519 -7.26034 64.7456 -2.24853 67.1803C-1.81127 67.3927 -1.40047 67.6557 -1.02459 67.964L3.13894 71.3788C4.04637 72.123 5.04792 72.7444 6.11771 73.227C7.25452 73.7398 8.45753 74.0909 9.6917 74.2701L13.2902 74.7925C14.2418 74.9307 15.2021 75 16.1637 75H34.6713H47.4974H55.1734C56.121 75 57.0634 74.8614 57.9709 74.5885L58.2651 74.5L59.3808 74.2987C60.4824 74.0999 61.5654 73.809 62.6183 73.429L63.8072 73L64.9157 72.5L66.5783 71.5L67.2945 70.9831C68.659 69.9983 69.8937 68.8452 70.9695 67.5512L71.012 67.5L72.4741 65.8512C72.9729 65.2887 73.3626 64.6381 73.6232 63.9328C73.7297 63.6447 73.8579 63.3651 74.0068 63.0964L74.0602 63C74.2447 62.6672 74.4036 62.3207 74.5355 61.9638L74.8916 61C75.2598 60.0035 75.5093 58.967 75.6351 57.9121L76 54.8519C76 52.3676 75.1043 49.9665 73.4773 48.0892L69.5 43.5L68.9176 42.9176C67.9937 41.9937 66.8145 41.3674 65.5317 41.1192L65.2219 41.0592C65.0182 41.0198 64.8112 41 64.6037 41C64.2047 41 63.809 41.0734 63.4364 41.2166L63.2036 41.306C62.8682 41.4349 62.5491 41.6026 62.2528 41.8058L43.222 54.8519L38.9466 57.2222L37.1715 57.9714C36.3673 58.3108 35.5032 58.4857 34.6303 58.4857C33.7182 58.4857 32.8163 58.2948 31.9825 57.9253L31.5294 57.7245C30.7774 57.3913 30.0753 56.9551 29.4434 56.4286L25.5 53.1429L24 51.6857L22.5 50.5C22.1689 50.1689 21.7856 49.8946 21.3654 49.6881L21.2784 49.6454C20.1385 49.0852 18.8244 48.9946 17.6185 49.393Z" fill="#EC4899"/>
</g>
<defs>
<clipPath id="clip0_1_4">
<rect width="74" height="74" rx="20" fill="white"/>
</clipPath>
</defs>
</svg>
