<svg width="322" height="60" viewBox="0 0 322 60" fill="none" xmlns="http://www.w3.org/2000/svg">
<mask id="path-1-outside-1_48_16591" maskUnits="userSpaceOnUse" x="-0.21814" y="-0.784363" width="322" height="61" fill="black">
<rect fill="white" x="-0.21814" y="-0.784363" width="322" height="61"/>
<path d="M6.64289 52.2156V7.90877H42.0251V18.9222H20.4413V27.2772H38.1008V37.6577H20.4413V52.2156H6.64289ZM42.752 16.7701V6.64286H56.1706V16.7701H42.752ZM42.8786 52.2156V20.378H56.1073V52.2156H42.8786ZM61.977 42.3415V28.9229H55.8374V20.378H61.977V10.6938H74.7627V20.378H81.7885V28.9229H74.7627V40.506C74.7627 41.9829 75.5012 42.7213 76.9781 42.7213H83.3709V52.2156H71.7878C68.623 52.2156 66.1967 51.3717 64.5088 49.6838C62.821 47.9537 61.977 45.5063 61.977 42.3415ZM81.4696 43.291L93.3691 41.7086C93.6223 44.3248 95.2891 45.6329 98.3695 45.6329C100.901 45.6329 102.167 44.8312 102.167 43.2277C102.167 41.9196 101.007 41.0334 98.6859 40.5693L94.8249 39.873C90.5208 39.0291 87.4615 37.8898 85.6471 36.4551C83.8326 35.0204 82.9254 32.7839 82.9254 29.7457C82.9254 26.6653 84.2546 24.1546 86.913 22.2136C89.6136 20.2725 93.4113 19.302 98.3062 19.302C102.948 19.302 106.535 20.1037 109.066 21.7072C111.64 23.2685 113.223 25.2939 113.814 27.7836L102.23 30.0622C101.935 29.0073 101.365 28.1633 100.522 27.5304C99.7198 26.8974 98.7492 26.5809 97.6099 26.5809C95.5001 26.5809 94.4451 27.3405 94.4451 28.8596C94.4451 30.0833 95.7744 30.885 98.4328 31.2648L103.053 32.0877C110.944 33.4802 114.89 36.9192 114.89 42.4048C114.89 45.7384 113.434 48.3968 110.522 50.3801C107.653 52.3211 103.518 53.2917 98.1163 53.2917C92.9683 53.2917 89.0228 52.3422 86.28 50.4434C83.5794 48.5445 81.9759 46.1604 81.4696 43.291ZM114.35 30.3154C114.266 23.5217 116.523 17.8884 121.123 13.4155C125.722 8.9426 131.609 6.74835 138.782 6.83275C144.394 6.83275 149.205 8.14086 153.214 10.7571C157.264 13.3733 159.965 16.9178 161.315 21.3907L147.264 25.8214C145.998 20.5046 143.086 17.8462 138.529 17.8462C135.66 17.8462 133.423 18.9222 131.82 21.0742C130.258 23.2263 129.478 26.2856 129.478 30.2521C129.478 33.9232 130.279 36.8559 131.883 39.0502C133.529 41.2444 135.723 42.3415 138.466 42.3415C142.77 42.3415 145.787 39.6409 147.517 34.2397L161.379 39.0502C159.986 43.3121 157.222 46.7511 153.087 49.3673C148.994 51.9836 144.183 53.2917 138.656 53.2917C131.271 53.2917 125.364 51.224 120.933 47.0887C116.544 42.9112 114.35 37.3201 114.35 30.3154ZM161.449 52.2156V7.90877H174.235V14.0484C174.235 19.534 173.032 24.0702 170.627 27.657H175.437C176.914 22.087 180.058 19.302 184.868 19.302C188.075 19.302 190.607 20.3147 192.464 22.3401C194.363 24.3656 195.312 27.2561 195.312 31.0116V52.2156H182.147V33.1004C182.147 30.3154 180.944 28.9229 178.539 28.9229C175.922 28.9229 174.614 30.8217 174.614 34.6195V52.2156H161.449ZM195.817 36.1386C195.817 31.1593 197.441 27.1084 200.691 23.9858C203.982 20.8633 208.202 19.302 213.35 19.302C218.793 19.302 223.034 20.8 226.072 23.7959C229.11 26.7919 230.629 30.8428 230.629 35.9487C230.629 36.7504 230.566 37.6788 230.44 38.7337H208.539C208.581 42.7846 210.206 44.8101 213.413 44.8101C215.818 44.8101 217.654 43.3543 218.92 40.4427L230.883 43.734C227.971 50.1058 222.148 53.2917 213.413 53.2917C207.885 53.2917 203.56 51.7937 200.437 48.7977C197.357 45.7595 195.817 41.5398 195.817 36.1386ZM208.729 32.4041H217.97C217.928 30.8007 217.485 29.5558 216.641 28.6697C215.839 27.7414 214.763 27.2772 213.413 27.2772C210.544 27.2772 208.982 28.9862 208.729 32.4041ZM234.781 48.7344C231.574 45.6962 229.97 41.6031 229.97 36.4551C229.97 31.307 231.616 27.1717 234.907 24.0491C238.241 20.8844 242.566 19.302 247.883 19.302C252.314 19.302 256.048 20.3358 259.086 22.4034C262.167 24.4289 264.15 27.1295 265.036 30.5053L252.757 33.4802C252.419 31.7079 251.807 30.3576 250.921 29.4292C250.077 28.4587 249.022 27.9735 247.756 27.9735C244.381 27.9735 242.693 30.7163 242.693 36.2019C242.693 38.8603 243.136 40.9279 244.022 42.4048C244.95 43.8817 246.195 44.6202 247.756 44.6202C250.373 44.6202 252.081 42.7213 252.883 38.9236L265.416 41.2022C264.403 45.1265 262.399 48.1225 259.403 50.1902C256.407 52.2578 252.567 53.2917 247.883 53.2917C242.397 53.2917 238.03 51.7726 234.781 48.7344ZM290.022 52.2156L281.604 39.7464L277.932 43.1644V52.2156H265.273V7.90877H277.932V18.8589C277.932 22.0659 277.405 24.6188 276.35 26.5177C275.295 28.4165 273.692 30.0622 271.54 31.4547L274.325 34.5562L288.756 20.378H304.263L291.161 32.4041L305.466 52.2156H290.022Z"/>
</mask>
<path d="M6.64289 52.2156V7.90877H42.0251V18.9222H20.4413V27.2772H38.1008V37.6577H20.4413V52.2156H6.64289ZM42.752 16.7701V6.64286H56.1706V16.7701H42.752ZM42.8786 52.2156V20.378H56.1073V52.2156H42.8786ZM61.977 42.3415V28.9229H55.8374V20.378H61.977V10.6938H74.7627V20.378H81.7885V28.9229H74.7627V40.506C74.7627 41.9829 75.5012 42.7213 76.9781 42.7213H83.3709V52.2156H71.7878C68.623 52.2156 66.1967 51.3717 64.5088 49.6838C62.821 47.9537 61.977 45.5063 61.977 42.3415ZM81.4696 43.291L93.3691 41.7086C93.6223 44.3248 95.2891 45.6329 98.3695 45.6329C100.901 45.6329 102.167 44.8312 102.167 43.2277C102.167 41.9196 101.007 41.0334 98.6859 40.5693L94.8249 39.873C90.5208 39.0291 87.4615 37.8898 85.6471 36.4551C83.8326 35.0204 82.9254 32.7839 82.9254 29.7457C82.9254 26.6653 84.2546 24.1546 86.913 22.2136C89.6136 20.2725 93.4113 19.302 98.3062 19.302C102.948 19.302 106.535 20.1037 109.066 21.7072C111.64 23.2685 113.223 25.2939 113.814 27.7836L102.23 30.0622C101.935 29.0073 101.365 28.1633 100.522 27.5304C99.7198 26.8974 98.7492 26.5809 97.6099 26.5809C95.5001 26.5809 94.4451 27.3405 94.4451 28.8596C94.4451 30.0833 95.7744 30.885 98.4328 31.2648L103.053 32.0877C110.944 33.4802 114.89 36.9192 114.89 42.4048C114.89 45.7384 113.434 48.3968 110.522 50.3801C107.653 52.3211 103.518 53.2917 98.1163 53.2917C92.9683 53.2917 89.0228 52.3422 86.28 50.4434C83.5794 48.5445 81.9759 46.1604 81.4696 43.291ZM114.35 30.3154C114.266 23.5217 116.523 17.8884 121.123 13.4155C125.722 8.9426 131.609 6.74835 138.782 6.83275C144.394 6.83275 149.205 8.14086 153.214 10.7571C157.264 13.3733 159.965 16.9178 161.315 21.3907L147.264 25.8214C145.998 20.5046 143.086 17.8462 138.529 17.8462C135.66 17.8462 133.423 18.9222 131.82 21.0742C130.258 23.2263 129.478 26.2856 129.478 30.2521C129.478 33.9232 130.279 36.8559 131.883 39.0502C133.529 41.2444 135.723 42.3415 138.466 42.3415C142.77 42.3415 145.787 39.6409 147.517 34.2397L161.379 39.0502C159.986 43.3121 157.222 46.7511 153.087 49.3673C148.994 51.9836 144.183 53.2917 138.656 53.2917C131.271 53.2917 125.364 51.224 120.933 47.0887C116.544 42.9112 114.35 37.3201 114.35 30.3154ZM161.449 52.2156V7.90877H174.235V14.0484C174.235 19.534 173.032 24.0702 170.627 27.657H175.437C176.914 22.087 180.058 19.302 184.868 19.302C188.075 19.302 190.607 20.3147 192.464 22.3401C194.363 24.3656 195.312 27.2561 195.312 31.0116V52.2156H182.147V33.1004C182.147 30.3154 180.944 28.9229 178.539 28.9229C175.922 28.9229 174.614 30.8217 174.614 34.6195V52.2156H161.449ZM195.817 36.1386C195.817 31.1593 197.441 27.1084 200.691 23.9858C203.982 20.8633 208.202 19.302 213.35 19.302C218.793 19.302 223.034 20.8 226.072 23.7959C229.11 26.7919 230.629 30.8428 230.629 35.9487C230.629 36.7504 230.566 37.6788 230.44 38.7337H208.539C208.581 42.7846 210.206 44.8101 213.413 44.8101C215.818 44.8101 217.654 43.3543 218.92 40.4427L230.883 43.734C227.971 50.1058 222.148 53.2917 213.413 53.2917C207.885 53.2917 203.56 51.7937 200.437 48.7977C197.357 45.7595 195.817 41.5398 195.817 36.1386ZM208.729 32.4041H217.97C217.928 30.8007 217.485 29.5558 216.641 28.6697C215.839 27.7414 214.763 27.2772 213.413 27.2772C210.544 27.2772 208.982 28.9862 208.729 32.4041ZM234.781 48.7344C231.574 45.6962 229.97 41.6031 229.97 36.4551C229.97 31.307 231.616 27.1717 234.907 24.0491C238.241 20.8844 242.566 19.302 247.883 19.302C252.314 19.302 256.048 20.3358 259.086 22.4034C262.167 24.4289 264.15 27.1295 265.036 30.5053L252.757 33.4802C252.419 31.7079 251.807 30.3576 250.921 29.4292C250.077 28.4587 249.022 27.9735 247.756 27.9735C244.381 27.9735 242.693 30.7163 242.693 36.2019C242.693 38.8603 243.136 40.9279 244.022 42.4048C244.95 43.8817 246.195 44.6202 247.756 44.6202C250.373 44.6202 252.081 42.7213 252.883 38.9236L265.416 41.2022C264.403 45.1265 262.399 48.1225 259.403 50.1902C256.407 52.2578 252.567 53.2917 247.883 53.2917C242.397 53.2917 238.03 51.7726 234.781 48.7344ZM290.022 52.2156L281.604 39.7464L277.932 43.1644V52.2156H265.273V7.90877H277.932V18.8589C277.932 22.0659 277.405 24.6188 276.35 26.5177C275.295 28.4165 273.692 30.0622 271.54 31.4547L274.325 34.5562L288.756 20.378H304.263L291.161 32.4041L305.466 52.2156H290.022Z" fill="#F8E71C"/>
<path d="M6.64289 52.2156H3.02792e-05V58.8585H6.64289V52.2156ZM6.64289 7.90877V1.26591H3.02792e-05V7.90877H6.64289ZM42.0251 7.90877H48.6679V1.26591H42.0251V7.90877ZM42.0251 18.9222V25.565H48.6679V18.9222H42.0251ZM20.4413 18.9222V12.2793H13.7985V18.9222H20.4413ZM20.4413 27.2772H13.7985V33.9201H20.4413V27.2772ZM38.1008 27.2772H44.7436V20.6343H38.1008V27.2772ZM38.1008 37.6577V44.3005H44.7436V37.6577H38.1008ZM20.4413 37.6577V31.0148H13.7985V37.6577H20.4413ZM20.4413 52.2156V58.8585H27.0842V52.2156H20.4413ZM6.64289 52.2156H13.2857V7.90877H6.64289H3.02792e-05V52.2156H6.64289ZM6.64289 7.90877V14.5516H42.0251V7.90877V1.26591H6.64289V7.90877ZM42.0251 7.90877H35.3822V18.9222H42.0251H48.6679V7.90877H42.0251ZM42.0251 18.9222V12.2793H20.4413V18.9222V25.565H42.0251V18.9222ZM20.4413 18.9222H13.7985V27.2772H20.4413H27.0842V18.9222H20.4413ZM20.4413 27.2772V33.9201H38.1008V27.2772V20.6343H20.4413V27.2772ZM38.1008 27.2772H31.4579V37.6577H38.1008H44.7436V27.2772H38.1008ZM38.1008 37.6577V31.0148H20.4413V37.6577V44.3005H38.1008V37.6577ZM20.4413 37.6577H13.7985V52.2156H20.4413H27.0842V37.6577H20.4413ZM20.4413 52.2156V45.5728H6.64289V52.2156V58.8585H20.4413V52.2156ZM42.752 16.7701H36.1091V23.413H42.752V16.7701ZM42.752 6.64286V3.8147e-06H36.1091V6.64286H42.752ZM56.1706 6.64286H62.8135V3.8147e-06H56.1706V6.64286ZM56.1706 16.7701V23.413H62.8135V16.7701H56.1706ZM42.8786 52.2156H36.2357V58.8585H42.8786V52.2156ZM42.8786 20.378V13.7351H36.2357V20.378H42.8786ZM56.1073 20.378H62.7502V13.7351H56.1073V20.378ZM56.1073 52.2156V58.8585H62.7502V52.2156H56.1073ZM42.752 16.7701H49.3948V6.64286H42.752H36.1091V16.7701H42.752ZM42.752 6.64286V13.2857H56.1706V6.64286V3.8147e-06H42.752V6.64286ZM56.1706 6.64286H49.5278V16.7701H56.1706H62.8135V6.64286H56.1706ZM56.1706 16.7701V10.1273H42.752V16.7701V23.413H56.1706V16.7701ZM42.8786 52.2156H49.5214V20.378H42.8786H36.2357V52.2156H42.8786ZM42.8786 20.378V27.0208H56.1073V20.378V13.7351H42.8786V20.378ZM56.1073 20.378H49.4645V52.2156H56.1073H62.7502V20.378H56.1073ZM56.1073 52.2156V45.5728H42.8786V52.2156V58.8585H56.1073V52.2156ZM61.977 28.9229H68.6199V22.28H61.977V28.9229ZM55.8374 28.9229H49.1945V35.5657H55.8374V28.9229ZM55.8374 20.378V13.7351H49.1945V20.378H55.8374ZM61.977 20.378V27.0208H68.6199V20.378H61.977ZM61.977 10.6938V4.05092H55.3342V10.6938H61.977ZM74.7627 10.6938H81.4056V4.05092H74.7627V10.6938ZM74.7627 20.378H68.1199V27.0208H74.7627V20.378ZM81.7885 20.378H88.4314V13.7351H81.7885V20.378ZM81.7885 28.9229V35.5657H88.4314V28.9229H81.7885ZM74.7627 28.9229V22.28H68.1199V28.9229H74.7627ZM83.3709 42.7213H90.0138V36.0785H83.3709V42.7213ZM83.3709 52.2156V58.8585H90.0138V52.2156H83.3709ZM64.5088 49.6838L59.754 54.3227L59.7826 54.352L59.8116 54.381L64.5088 49.6838ZM61.977 42.3415H68.6199V28.9229H61.977H55.3342V42.3415H61.977ZM61.977 28.9229V22.28H55.8374V28.9229V35.5657H61.977V28.9229ZM55.8374 28.9229H62.4802V20.378H55.8374H49.1945V28.9229H55.8374ZM55.8374 20.378V27.0208H61.977V20.378V13.7351H55.8374V20.378ZM61.977 20.378H68.6199V10.6938H61.977H55.3342V20.378H61.977ZM61.977 10.6938V17.3366H74.7627V10.6938V4.05092H61.977V10.6938ZM74.7627 10.6938H68.1199V20.378H74.7627H81.4056V10.6938H74.7627ZM74.7627 20.378V27.0208H81.7885V20.378V13.7351H74.7627V20.378ZM81.7885 20.378H75.1457V28.9229H81.7885H88.4314V20.378H81.7885ZM81.7885 28.9229V22.28H74.7627V28.9229V35.5657H81.7885V28.9229ZM74.7627 28.9229H68.1199V40.506H74.7627H81.4056V28.9229H74.7627ZM74.7627 40.506H68.1199C68.1199 42.2684 68.565 44.8103 70.6193 46.8647C72.6737 48.9191 75.2156 49.3642 76.9781 49.3642V42.7213V36.0785C77.2636 36.0785 78.6978 36.1543 80.0138 37.4703C81.3297 38.7862 81.4056 40.2205 81.4056 40.506H74.7627ZM76.9781 42.7213V49.3642H83.3709V42.7213V36.0785H76.9781V42.7213ZM83.3709 42.7213H76.7281V52.2156H83.3709H90.0138V42.7213H83.3709ZM83.3709 52.2156V45.5728H71.7878V52.2156V58.8585H83.3709V52.2156ZM71.7878 52.2156V45.5728C69.7906 45.5728 69.2829 45.0635 69.206 44.9866L64.5088 49.6838L59.8116 54.381C63.1105 57.6799 67.4555 58.8585 71.7878 58.8585V52.2156ZM64.5088 49.6838L69.2637 45.045C69.1255 44.9033 68.6199 44.3284 68.6199 42.3415H61.977H55.3342C55.3342 46.6843 56.5164 51.0042 59.754 54.3227L64.5088 49.6838ZM81.4696 43.291L80.5939 36.7061L73.7233 37.6197L74.9278 44.4454L81.4696 43.291ZM93.3691 41.7086L99.9811 41.0687L99.3179 34.2162L92.4935 35.1237L93.3691 41.7086ZM98.6859 40.5693L99.9887 34.0554L99.9269 34.043L99.8648 34.0318L98.6859 40.5693ZM94.8249 39.873L93.5467 46.3917L93.5963 46.4015L93.646 46.4104L94.8249 39.873ZM85.6471 36.4551L89.7672 31.2443V31.2443L85.6471 36.4551ZM86.913 22.2136L83.036 16.8195L83.0158 16.834L82.9957 16.8486L86.913 22.2136ZM109.066 21.7072L105.512 27.3192L105.566 27.3536L105.621 27.3869L109.066 21.7072ZM113.814 27.7836L115.096 34.3015L121.871 32.9686L120.277 26.2499L113.814 27.7836ZM102.23 30.0622L95.8337 31.8533L97.489 37.7651L103.513 36.5801L102.23 30.0622ZM100.522 27.5304L96.4053 32.7442L96.4699 32.7953L96.5358 32.8447L100.522 27.5304ZM98.4328 31.2648L99.5974 24.7249L99.4851 24.7049L99.3722 24.6887L98.4328 31.2648ZM103.053 32.0877L101.889 38.6276L101.899 38.6294L103.053 32.0877ZM110.522 50.3801L114.244 55.8822L114.253 55.8763L114.262 55.8703L110.522 50.3801ZM86.28 50.4434L82.4592 55.8774L82.479 55.8913L82.4988 55.9051L86.28 50.4434ZM81.4696 43.291L82.3452 49.8759L94.2448 48.2935L93.3691 41.7086L92.4935 35.1237L80.5939 36.7061L81.4696 43.291ZM93.3691 41.7086L86.7572 42.3484C87.0138 45.0003 88.1167 47.8439 90.7079 49.8775C93.1379 51.7846 95.995 52.2758 98.3695 52.2758V45.6329V38.99C97.6635 38.99 98.147 38.8271 98.9103 39.4261C99.3062 39.7369 99.605 40.1258 99.7911 40.5061C99.964 40.8596 99.9829 41.0871 99.9811 41.0687L93.3691 41.7086ZM98.3695 45.6329V52.2758C100.122 52.2758 102.572 52.0369 104.772 50.6436C107.485 48.9257 108.81 46.1141 108.81 43.2277H102.167H95.5243C95.5243 42.7442 95.6245 41.9972 96.0515 41.1861C96.4886 40.3555 97.1017 39.7754 97.6635 39.4196C98.5975 38.828 99.1484 38.99 98.3695 38.99V45.6329ZM102.167 43.2277H108.81C108.81 40.2422 107.335 37.835 105.329 36.3025C103.596 34.9793 101.595 34.3767 99.9887 34.0554L98.6859 40.5693L97.3832 47.0831C98.0976 47.226 97.8375 47.2985 97.2652 46.8615C96.9253 46.6019 96.4538 46.143 96.0774 45.4312C95.6889 44.6967 95.5243 43.9228 95.5243 43.2277H102.167ZM98.6859 40.5693L99.8648 34.0318L96.0038 33.3356L94.8249 39.873L93.646 46.4104L97.5071 47.1067L98.6859 40.5693ZM94.8249 39.873L96.1031 33.3543C92.065 32.5625 90.3001 31.6657 89.7672 31.2443L85.6471 36.4551L81.5269 41.6658C84.623 44.1138 88.9766 45.4956 93.5467 46.3917L94.8249 39.873ZM85.6471 36.4551L89.7672 31.2443C89.7667 31.2439 89.7801 31.2557 89.7926 31.2725C89.8041 31.288 89.7895 31.2738 89.7614 31.2046C89.7011 31.0558 89.5682 30.6221 89.5682 29.7457H82.9254H76.2825C76.2825 34.1275 77.6481 38.5988 81.5269 41.6658L85.6471 36.4551ZM82.9254 29.7457H89.5682C89.5682 28.9508 89.7473 28.3692 90.8302 27.5785L86.913 22.2136L82.9957 16.8486C78.7618 19.9401 76.2825 24.3799 76.2825 29.7457H82.9254ZM86.913 22.2136L90.79 27.6077C91.9415 26.78 94.1771 25.9448 98.3062 25.9448V19.302V12.6591C92.6455 12.6591 87.2857 13.765 83.036 16.8195L86.913 22.2136ZM98.3062 19.302V25.9448C102.326 25.9448 104.477 26.6636 105.512 27.3192L109.066 21.7072L112.621 16.0952C108.592 13.5439 103.57 12.6591 98.3062 12.6591V19.302ZM109.066 21.7072L105.621 27.3869C106.965 28.2017 107.242 28.862 107.35 29.3173L113.814 27.7836L120.277 26.2499C119.203 21.7259 116.316 18.3353 112.511 16.0275L109.066 21.7072ZM113.814 27.7836L112.531 21.2656L100.948 23.5443L102.23 30.0622L103.513 36.5801L115.096 34.3015L113.814 27.7836ZM102.23 30.0622L108.627 28.2711C107.954 25.8667 106.568 23.7617 104.507 22.2161L100.522 27.5304L96.5358 32.8447C96.3872 32.7332 96.22 32.5682 96.0758 32.3546C95.9333 32.1434 95.8633 31.9592 95.8337 31.8533L102.23 30.0622ZM100.522 27.5304L104.638 22.3165C102.528 20.651 100.061 19.9381 97.6099 19.9381V26.5809V33.2238C97.5605 33.2238 97.3849 33.216 97.1329 33.1339C96.8724 33.0489 96.6193 32.9132 96.4053 32.7442L100.522 27.5304ZM97.6099 26.5809V19.9381C95.9572 19.9381 93.5214 20.1998 91.3549 21.7597C88.7847 23.6102 87.8023 26.375 87.8023 28.8596H94.4451H101.088C101.088 29.2449 101.02 29.8997 100.671 30.6535C100.306 31.4431 99.7472 32.0884 99.1178 32.5415C98.0062 33.3419 97.1528 33.2238 97.6099 33.2238V26.5809ZM94.4451 28.8596H87.8023C87.8023 32.4375 89.9683 34.8347 92.0111 36.0669C93.802 37.1471 95.8326 37.6037 97.4933 37.8409L98.4328 31.2648L99.3722 24.6887C98.3745 24.5462 98.4113 24.412 98.873 24.6905C99.1608 24.864 99.7374 25.2754 100.248 26.0536C100.8 26.8949 101.088 27.8845 101.088 28.8596H94.4451ZM98.4328 31.2648L97.2681 37.8048L101.889 38.6276L103.053 32.0877L104.218 25.5477L99.5974 24.7249L98.4328 31.2648ZM103.053 32.0877L101.899 38.6294C105.237 39.2185 106.865 40.108 107.566 40.7189C108.014 41.1094 108.247 41.4768 108.247 42.4048H114.89H121.532C121.532 37.8472 119.793 33.7524 116.295 30.7038C113.051 27.8756 108.761 26.3493 104.208 25.5459L103.053 32.0877ZM114.89 42.4048H108.247C108.247 43.3965 108 44.0603 106.783 44.8899L110.522 50.3801L114.262 55.8703C118.867 52.7333 121.532 48.0803 121.532 42.4048H114.89ZM110.522 50.3801L106.8 44.8779C105.486 45.7666 102.877 46.6488 98.1163 46.6488V53.2917V59.9345C104.158 59.9345 109.819 58.8756 114.244 55.8822L110.522 50.3801ZM98.1163 53.2917V46.6488C93.6358 46.6488 91.2394 45.7973 90.0612 44.9817L86.28 50.4434L82.4988 55.9051C86.8063 58.8872 92.3007 59.9345 98.1163 59.9345V53.2917ZM86.28 50.4434L90.1008 45.0093C88.6293 43.9747 88.1708 43.0403 88.0113 42.1365L81.4696 43.291L74.9278 44.4454C75.781 49.2805 78.5295 53.1143 82.4592 55.8774L86.28 50.4434ZM114.35 30.3154H120.993V30.2741L120.992 30.2329L114.35 30.3154ZM121.123 13.4155L125.754 18.1778L121.123 13.4155ZM138.782 6.83275L138.704 13.4751L138.743 13.4756H138.782V6.83275ZM153.214 10.7571L149.583 16.32L149.596 16.3287L149.61 16.3373L153.214 10.7571ZM161.315 21.3907L163.313 27.7261L169.571 25.7528L167.675 19.4709L161.315 21.3907ZM147.264 25.8214L140.802 27.36L142.455 34.3031L149.261 32.1568L147.264 25.8214ZM131.82 21.0742L126.493 17.1053L126.468 17.1392L126.443 17.1734L131.82 21.0742ZM131.883 39.0502L126.52 42.9696L126.544 43.0029L126.569 43.0359L131.883 39.0502ZM147.517 34.2397L149.695 27.964L143.266 25.7331L141.191 32.2133L147.517 34.2397ZM161.379 39.0502L167.693 41.1133L169.719 34.913L163.557 32.7745L161.379 39.0502ZM153.087 49.3673L149.535 43.7536L149.522 43.7618L149.509 43.7702L153.087 49.3673ZM120.933 47.0887L116.353 51.9001L116.376 51.9227L116.4 51.945L120.933 47.0887ZM114.35 30.3154L120.992 30.2329C120.929 25.1412 122.545 21.2984 125.754 18.1778L121.123 13.4155L116.492 8.65319C110.502 14.4783 107.602 21.9021 107.708 30.3979L114.35 30.3154ZM121.123 13.4155L125.754 18.1778C128.94 15.0792 133.06 13.4087 138.704 13.4751L138.782 6.83275L138.86 0.190351C130.157 0.0879574 122.504 2.80596 116.492 8.65319L121.123 13.4155ZM138.782 6.83275V13.4756C143.332 13.4756 146.829 14.5229 149.583 16.32L153.214 10.7571L156.844 5.19411C151.58 1.75876 145.457 0.189892 138.782 0.189892V6.83275ZM153.214 10.7571L149.61 16.3373C152.383 18.1287 154.077 20.398 154.956 23.3105L161.315 21.3907L167.675 19.4709C165.853 13.4377 162.146 8.61784 156.817 5.17681L153.214 10.7571ZM161.315 21.3907L159.318 15.0553L145.266 19.486L147.264 25.8214L149.261 32.1568L163.313 27.7261L161.315 21.3907ZM147.264 25.8214L153.726 24.2828C152.9 20.8133 151.362 17.4474 148.61 14.9343C145.74 12.3145 142.189 11.2033 138.529 11.2033V17.8462V24.489C139.021 24.489 139.291 24.5601 139.411 24.6029C139.516 24.6403 139.58 24.6806 139.652 24.7456C139.811 24.891 140.362 25.5126 140.802 27.36L147.264 25.8214ZM138.529 17.8462V11.2033C133.73 11.2033 129.448 13.1395 126.493 17.1053L131.82 21.0742L137.146 25.0432C137.361 24.7556 137.505 24.675 137.58 24.6392C137.669 24.5962 137.936 24.489 138.529 24.489V17.8462ZM131.82 21.0742L126.443 17.1734C123.744 20.894 122.835 25.5383 122.835 30.2521H129.478H136.121C136.121 27.0328 136.773 25.5586 137.197 24.9751L131.82 21.0742ZM129.478 30.2521H122.835C122.835 34.8452 123.837 39.2989 126.52 42.9696L131.883 39.0502L137.246 35.1308C136.722 34.413 136.121 33.0013 136.121 30.2521H129.478ZM131.883 39.0502L126.569 43.0359C129.469 46.9028 133.632 48.9844 138.466 48.9844V42.3415V35.6987C138.003 35.6987 137.804 35.6125 137.734 35.5771C137.663 35.5418 137.475 35.435 137.197 35.0645L131.883 39.0502ZM138.466 42.3415V48.9844C142.14 48.9844 145.579 47.779 148.387 45.2657C151.06 42.8728 152.755 39.6634 153.843 36.2661L147.517 34.2397L141.191 32.2133C140.549 34.2173 139.87 35.0588 139.526 35.3665C139.317 35.5538 139.095 35.6987 138.466 35.6987V42.3415ZM147.517 34.2397L145.339 40.5154L159.201 45.3259L161.379 39.0502L163.557 32.7745L149.695 27.964L147.517 34.2397ZM161.379 39.0502L155.064 36.9871C154.197 39.6425 152.493 41.8827 149.535 43.7536L153.087 49.3673L156.639 54.9811C161.952 51.6196 165.776 46.9817 167.693 41.1133L161.379 39.0502ZM153.087 49.3673L149.509 43.7702C146.626 45.6129 143.095 46.6488 138.656 46.6488V53.2917V59.9345C145.272 59.9345 151.361 58.3542 156.665 54.9645L153.087 49.3673ZM138.656 53.2917V46.6488C132.566 46.6488 128.409 44.9801 125.465 42.2324L120.933 47.0887L116.4 51.945C122.318 57.4679 129.976 59.9345 138.656 59.9345V53.2917ZM120.933 47.0887L125.513 42.2773C122.65 39.5523 120.993 35.8113 120.993 30.3154H114.35H107.707C107.707 38.8289 110.438 46.2701 116.353 51.9001L120.933 47.0887ZM161.449 52.2156H154.806V58.8585H161.449V52.2156ZM161.449 7.90877V1.26591H154.806V7.90877H161.449ZM174.235 7.90877H180.877V1.26591H174.235V7.90877ZM170.627 27.657L165.11 23.9572L158.174 34.2998H170.627V27.657ZM175.437 27.657V34.2998H180.548L181.858 29.3595L175.437 27.657ZM192.464 22.3401L187.567 26.8289L187.592 26.8563L187.617 26.8835L192.464 22.3401ZM195.312 52.2156V58.8585H201.955V52.2156H195.312ZM182.147 52.2156H175.504V58.8585H182.147V52.2156ZM174.614 52.2156V58.8585H181.257V52.2156H174.614ZM161.449 52.2156H168.092V7.90877H161.449H154.806V52.2156H161.449ZM161.449 7.90877V14.5516H174.235V7.90877V1.26591H161.449V7.90877ZM174.235 7.90877H167.592V14.0484H174.235H180.877V7.90877H174.235ZM174.235 14.0484H167.592C167.592 18.5715 166.605 21.7265 165.11 23.9572L170.627 27.657L176.144 31.3567C179.459 26.4139 180.877 20.4966 180.877 14.0484H174.235ZM170.627 27.657V34.2998H175.437V27.657V21.0141H170.627V27.657ZM175.437 27.657L181.858 29.3595C182.382 27.3828 183.017 26.6203 183.308 26.363C183.489 26.2027 183.835 25.9448 184.868 25.9448V19.302V12.6591C181.092 12.6591 177.46 13.7937 174.498 16.4184C171.644 18.9461 169.969 22.3611 169.016 25.9544L175.437 27.657ZM184.868 19.302V25.9448C186.554 25.9448 187.182 26.4086 187.567 26.8289L192.464 22.3401L197.361 17.8514C194.032 14.2208 189.596 12.6591 184.868 12.6591V19.302ZM192.464 22.3401L187.617 26.8835C188.005 27.2973 188.669 28.3379 188.669 31.0116H195.312H201.955C201.955 26.1743 200.72 21.4339 197.31 17.7968L192.464 22.3401ZM195.312 31.0116H188.669V52.2156H195.312H201.955V31.0116H195.312ZM195.312 52.2156V45.5728H182.147V52.2156V58.8585H195.312V52.2156ZM182.147 52.2156H188.789V33.1004H182.147H175.504V52.2156H182.147ZM182.147 33.1004H188.789C188.789 30.9031 188.336 28.015 186.272 25.6254C184.047 23.0494 181.04 22.28 178.539 22.28V28.9229V35.5657C178.514 35.5657 178.198 35.5638 177.725 35.3813C177.212 35.1833 176.666 34.8288 176.217 34.3092C175.356 33.312 175.504 32.5127 175.504 33.1004H182.147ZM178.539 28.9229V22.28C175.387 22.28 172.201 23.5652 170.125 26.5785C168.357 29.1449 167.971 32.1639 167.971 34.6195H174.614H181.257C181.257 34.0302 181.31 33.7185 181.334 33.6139C181.358 33.5094 181.323 33.7424 181.066 34.1156C180.779 34.5319 180.321 34.9654 179.715 35.2585C179.141 35.5365 178.689 35.5657 178.539 35.5657V28.9229ZM174.614 34.6195H167.971V52.2156H174.614H181.257V34.6195H174.614ZM174.614 52.2156V45.5728H161.449V52.2156V58.8585H174.614V52.2156ZM200.691 23.9858L196.119 19.1667L196.103 19.1814L196.088 19.1962L200.691 23.9858ZM226.072 23.7959L230.736 19.066V19.066L226.072 23.7959ZM230.44 38.7337V45.3765H236.333L237.035 39.5251L230.44 38.7337ZM208.539 38.7337V32.0908H201.827L201.897 38.8029L208.539 38.7337ZM218.92 40.4427L220.682 34.0378L215.126 32.5091L212.828 37.794L218.92 40.4427ZM230.883 43.734L236.925 46.4949L240.167 39.3988L232.645 37.3292L230.883 43.734ZM200.437 48.7977L195.773 53.5272L195.805 53.5593L195.838 53.591L200.437 48.7977ZM208.729 32.4041L202.104 31.9134L201.576 39.047H208.729V32.4041ZM217.97 32.4041V39.047H224.79L224.611 32.2294L217.97 32.4041ZM216.641 28.6697L211.614 33.0116L211.719 33.1339L211.831 33.251L216.641 28.6697ZM195.817 36.1386H202.46C202.46 32.7575 203.491 30.5074 205.294 28.7754L200.691 23.9858L196.088 19.1962C191.392 23.7094 189.174 29.5612 189.174 36.1386H195.817ZM200.691 23.9858L205.263 28.805C207.151 27.0133 209.656 25.9448 213.35 25.9448V19.302V12.6591C206.748 12.6591 200.813 14.7132 196.119 19.1667L200.691 23.9858ZM213.35 19.302V25.9448C217.551 25.9448 219.931 27.069 221.408 28.5259L226.072 23.7959L230.736 19.066C226.137 14.5309 220.035 12.6591 213.35 12.6591V19.302ZM226.072 23.7959L221.408 28.5259C222.936 30.0326 223.987 32.2454 223.987 35.9487H230.629H237.272C237.272 29.4403 235.285 23.5513 230.736 19.066L226.072 23.7959ZM230.629 35.9487H223.987C223.987 36.4169 223.949 37.0711 223.844 37.9422L230.44 38.7337L237.035 39.5251C237.184 38.2864 237.272 37.084 237.272 35.9487H230.629ZM230.44 38.7337V32.0908H208.539V38.7337V45.3765H230.44V38.7337ZM208.539 38.7337L201.897 38.8029C201.925 41.5319 202.47 44.783 204.607 47.4473C206.974 50.3979 210.316 51.4529 213.413 51.4529V44.8101V38.1672C213.301 38.1672 213.503 38.149 213.873 38.304C214.281 38.4752 214.678 38.7687 214.971 39.1346C215.24 39.47 215.292 39.7019 215.274 39.6348C215.252 39.5561 215.188 39.2602 215.182 38.6645L208.539 38.7337ZM213.413 44.8101V51.4529C216.071 51.4529 218.596 50.6086 220.721 48.9229C222.743 47.3195 224.091 45.2081 225.012 43.0914L218.92 40.4427L212.828 37.794C212.662 38.1756 212.525 38.3974 212.447 38.5072C212.372 38.6134 212.369 38.5904 212.466 38.5135C212.571 38.4301 212.738 38.328 212.953 38.2541C213.166 38.181 213.334 38.1672 213.413 38.1672V44.8101ZM218.92 40.4427L217.158 46.8475L229.12 50.1389L230.883 43.734L232.645 37.3292L220.682 34.0378L218.92 40.4427ZM230.883 43.734L224.841 40.9732C223.945 42.9328 222.725 44.2089 221.143 45.0746C219.47 45.9901 217.006 46.6488 213.413 46.6488V53.2917V59.9345C218.554 59.9345 223.37 59.0002 227.52 56.7299C231.761 54.4097 234.908 50.907 236.925 46.4949L230.883 43.734ZM213.413 53.2917V46.6488C209.104 46.6488 206.606 45.5098 205.036 44.0043L200.437 48.7977L195.838 53.591C200.514 58.0775 206.666 59.9345 213.413 59.9345V53.2917ZM200.437 48.7977L205.102 44.0682C203.585 42.5723 202.46 40.2297 202.46 36.1386H195.817H189.174C189.174 42.8499 191.129 48.9467 195.773 53.5272L200.437 48.7977ZM208.729 32.4041V39.047H217.97V32.4041V25.7613H208.729V32.4041ZM217.97 32.4041L224.611 32.2294C224.539 29.5044 223.746 26.4974 221.451 24.0884L216.641 28.6697L211.831 33.251C211.56 32.9672 211.414 32.6795 211.348 32.4954C211.291 32.3343 211.323 32.3327 211.33 32.5789L217.97 32.4041ZM216.641 28.6697L221.669 24.3278C219.469 21.7804 216.475 20.6343 213.413 20.6343V27.2772V33.9201C213.32 33.9201 213.012 33.9017 212.602 33.7249C212.175 33.5409 211.837 33.2703 211.614 33.0116L216.641 28.6697ZM213.413 27.2772V20.6343C210.593 20.6343 207.516 21.5276 205.186 24.0784C203.019 26.4505 202.29 29.4051 202.104 31.9134L208.729 32.4041L215.354 32.8949C215.421 31.9852 215.6 32.3763 214.994 33.0394C214.673 33.3915 214.277 33.6488 213.897 33.7954C213.547 33.9303 213.347 33.9201 213.413 33.9201V27.2772ZM234.781 48.7344L230.212 53.5568L230.228 53.5717L230.244 53.5865L234.781 48.7344ZM234.907 24.0491L239.479 28.8683L239.481 28.8667L234.907 24.0491ZM259.086 22.4034L255.349 27.8952L255.392 27.9249L255.437 27.9539L259.086 22.4034ZM265.036 30.5053L266.6 36.9614L273.18 35.3672L271.461 28.8187L265.036 30.5053ZM252.757 33.4802L246.231 34.7231L247.537 41.5797L254.321 39.9363L252.757 33.4802ZM250.921 29.4292L245.908 33.7881L246.009 33.9045L246.116 34.016L250.921 29.4292ZM244.022 42.4048L238.326 45.8226L238.361 45.8816L238.398 45.94L244.022 42.4048ZM252.883 38.9236L254.072 32.3879L247.718 31.2326L246.384 37.5514L252.883 38.9236ZM265.416 41.2022L271.848 42.8621L273.633 35.9445L266.604 34.6665L265.416 41.2022ZM259.403 50.1902L263.176 55.6574V55.6574L259.403 50.1902ZM234.781 48.7344L239.349 43.912C237.688 42.3377 236.613 40.1076 236.613 36.4551H229.97H223.327C223.327 43.0986 225.46 49.0547 230.212 53.5568L234.781 48.7344ZM229.97 36.4551H236.613C236.613 32.8599 237.694 30.5624 239.479 28.8683L234.907 24.0491L230.335 19.23C225.538 23.781 223.327 29.7541 223.327 36.4551H229.97ZM234.907 24.0491L239.481 28.8667C241.387 27.0572 243.982 25.9448 247.883 25.9448V19.302V12.6591C241.15 12.6591 235.095 14.7115 230.334 19.2315L234.907 24.0491ZM247.883 19.302V25.9448C251.259 25.9448 253.622 26.7202 255.349 27.8952L259.086 22.4034L262.824 16.9117C258.474 13.9513 253.368 12.6591 247.883 12.6591V19.302ZM259.086 22.4034L255.437 27.9539C257.231 29.1337 258.166 30.4976 258.611 32.1919L265.036 30.5053L271.461 28.8187C270.134 23.7614 267.102 19.7241 262.736 16.853L259.086 22.4034ZM265.036 30.5053L263.472 24.0492L251.193 27.0241L252.757 33.4802L254.321 39.9363L266.6 36.9614L265.036 30.5053ZM252.757 33.4802L259.282 32.2372C258.798 29.6969 257.786 27.0006 255.726 24.8425L250.921 29.4292L246.116 34.016C245.97 33.8629 245.949 33.7818 245.994 33.8799C246.042 33.9859 246.14 34.2464 246.231 34.7231L252.757 33.4802ZM250.921 29.4292L255.934 25.0703C253.851 22.6756 250.98 21.3306 247.756 21.3306V27.9735V34.6163C247.518 34.6163 247.14 34.5653 246.721 34.3724C246.304 34.1807 246.038 33.9368 245.908 33.7881L250.921 29.4292ZM247.756 27.9735V21.3306C243.897 21.3306 240.423 23.1008 238.301 26.5491C236.505 29.4684 236.05 32.9936 236.05 36.2019H242.693H249.336C249.336 35.1509 249.418 34.4164 249.516 33.9368C249.617 33.4492 249.703 33.3707 249.616 33.5121C249.502 33.6977 249.213 34.0537 248.705 34.3287C248.211 34.5962 247.826 34.6163 247.756 34.6163V27.9735ZM242.693 36.2019H236.05C236.05 39.4633 236.571 42.8973 238.326 45.8226L244.022 42.4048L249.718 38.9871C249.725 38.9995 249.622 38.8305 249.52 38.3545C249.418 37.8773 249.336 37.1768 249.336 36.2019H242.693ZM244.022 42.4048L238.398 45.94C240.372 49.0815 243.61 51.263 247.756 51.263V44.6202V37.9773C248.071 37.9773 248.557 38.0661 249.041 38.3531C249.494 38.6218 249.663 38.8965 249.646 38.8697L244.022 42.4048ZM247.756 44.6202V51.263C250.896 51.263 253.789 50.027 255.938 47.6399C257.878 45.4837 258.856 42.7909 259.383 40.2957L252.883 38.9236L246.384 37.5514C246.256 38.1568 246.123 38.5325 246.033 38.7367C245.944 38.9396 245.928 38.9014 246.063 38.7522C246.214 38.584 246.486 38.3535 246.878 38.1816C247.266 38.0114 247.591 37.9773 247.756 37.9773V44.6202ZM252.883 38.9236L251.695 45.4593L264.227 47.7379L265.416 41.2022L266.604 34.6665L254.072 32.3879L252.883 38.9236ZM265.416 41.2022L258.984 39.5423C258.322 42.107 257.158 43.6677 255.63 44.7229L259.403 50.1902L263.176 55.6574C267.639 52.5773 270.484 48.1461 271.848 42.8621L265.416 41.2022ZM259.403 50.1902L255.63 44.7229C254.022 45.8322 251.604 46.6488 247.883 46.6488V53.2917V59.9345C253.53 59.9345 258.791 58.6835 263.176 55.6574L259.403 50.1902ZM247.883 53.2917V46.6488C243.669 46.6488 241.065 45.516 239.318 43.8823L234.781 48.7344L230.244 53.5865C234.995 58.0291 241.125 59.9345 247.883 59.9345V53.2917ZM290.022 52.2156L284.516 55.9326L286.492 58.8585H290.022V52.2156ZM281.604 39.7464L287.109 36.0294L282.763 29.5912L277.077 34.8846L281.604 39.7464ZM277.932 43.1644L273.406 38.3025L271.29 40.2729V43.1644H277.932ZM277.932 52.2156V58.8585H284.575V52.2156H277.932ZM265.273 52.2156H258.63V58.8585H265.273V52.2156ZM265.273 7.90877V1.26591H258.63V7.90877H265.273ZM277.932 7.90877H284.575V1.26591H277.932V7.90877ZM276.35 26.5177L282.157 29.7437V29.7437L276.35 26.5177ZM271.54 31.4547L267.931 25.8776L261.399 30.1041L266.597 35.893L271.54 31.4547ZM274.325 34.5562L269.382 38.9944L274.024 44.1639L278.98 39.2948L274.325 34.5562ZM288.756 20.378V13.7351H286.039L284.1 15.6394L288.756 20.378ZM304.263 20.378L308.755 25.2719L321.324 13.7351H304.263V20.378ZM291.161 32.4041L286.669 27.5103L282.318 31.5042L285.776 36.2928L291.161 32.4041ZM305.466 52.2156V58.8585H318.456L310.852 48.3269L305.466 52.2156ZM290.022 52.2156L295.527 48.4987L287.109 36.0294L281.604 39.7464L276.098 43.4634L284.516 55.9326L290.022 52.2156ZM281.604 39.7464L277.077 34.8846L273.406 38.3025L277.932 43.1644L282.459 48.0262L286.13 44.6083L281.604 39.7464ZM277.932 43.1644H271.29V52.2156H277.932H284.575V43.1644H277.932ZM277.932 52.2156V45.5728H265.273V52.2156V58.8585H277.932V52.2156ZM265.273 52.2156H271.916V7.90877H265.273H258.63V52.2156H265.273ZM265.273 7.90877V14.5516H277.932V7.90877V1.26591H265.273V7.90877ZM277.932 7.90877H271.29V18.8589H277.932H284.575V7.90877H277.932ZM277.932 18.8589H271.29C271.29 21.4362 270.85 22.7395 270.543 23.2916L276.35 26.5177L282.157 29.7437C283.96 26.4981 284.575 22.6955 284.575 18.8589H277.932ZM276.35 26.5177L270.543 23.2916C270.105 24.0807 269.333 24.9703 267.931 25.8776L271.54 31.4547L275.148 37.0318C278.05 35.1542 280.485 32.7523 282.157 29.7437L276.35 26.5177ZM271.54 31.4547L266.597 35.893L269.382 38.9944L274.325 34.5562L279.267 30.1179L276.482 27.0164L271.54 31.4547ZM274.325 34.5562L278.98 39.2948L293.411 25.1166L288.756 20.378L284.1 15.6394L269.669 29.8176L274.325 34.5562ZM288.756 20.378V27.0208H304.263V20.378V13.7351H288.756V20.378ZM304.263 20.378L299.771 15.4841L286.669 27.5103L291.161 32.4041L295.653 37.298L308.755 25.2719L304.263 20.378ZM291.161 32.4041L285.776 36.2928L300.08 56.1043L305.466 52.2156L310.852 48.3269L296.547 28.5154L291.161 32.4041ZM305.466 52.2156V45.5728H290.022V52.2156V58.8585H305.466V52.2156Z" fill="#003366" mask="url(#path-1-outside-1_48_16591)"/>
</svg>
