<svg width="38" height="38" viewBox="0 0 38 38" fill="none" xmlns="http://www.w3.org/2000/svg">
<path d="M11.0833 13.4583L15.7415 16.2124C18.4573 17.8181 19.5427 17.8181 22.2585 16.2124L26.9167 13.4583" stroke="#003366" stroke-width="2.5" stroke-linecap="round" stroke-linejoin="round"/>
<path d="M3.19162 21.3364C3.29513 26.1901 3.34689 28.617 5.13784 30.4148C6.92879 32.2125 9.42135 32.2752 14.4065 32.4004C17.4789 32.4776 20.5211 32.4776 23.5935 32.4004C28.5786 32.2752 31.0712 32.2125 32.8622 30.4148C34.6531 28.617 34.7049 26.1901 34.8084 21.3364C34.8416 19.7757 34.8416 18.2242 34.8084 16.6636C34.7049 11.8098 34.6531 9.38294 32.8622 7.58517C31.0712 5.78741 28.5786 5.72478 23.5935 5.59953C20.5211 5.52233 17.4789 5.52233 14.4065 5.59952C9.42134 5.72476 6.92879 5.78738 5.13783 7.58515C3.34688 9.38292 3.29512 11.8098 3.19162 16.6636C3.15834 18.2242 3.15834 19.7757 3.19162 21.3364Z" stroke="#003366" stroke-width="2.5" stroke-linejoin="round"/>
</svg>
