<svg width="39" height="39" viewBox="0 0 39 39" fill="none" xmlns="http://www.w3.org/2000/svg">
<path d="M19.2864 26.5188C24.5834 26.5188 29.2164 28.797 31.7362 32.1962L29.0718 33.4561C27.0207 31.026 23.4045 29.4117 19.2864 29.4117C15.1682 29.4117 11.5521 31.026 9.50095 33.4561L6.83798 32.1947C9.35775 28.7955 13.9894 26.5188 19.2864 26.5188ZM19.2864 4.82159C21.2045 4.82159 23.0441 5.58358 24.4004 6.93991C25.7568 8.29625 26.5188 10.1358 26.5188 12.054V16.3934C26.5186 18.2571 25.7991 20.0489 24.5101 21.395C23.2211 22.7411 21.4622 23.5377 19.6003 23.6186L19.2864 23.6258C17.3682 23.6258 15.5286 22.8638 14.1723 21.5075C12.816 20.1512 12.054 18.3116 12.054 16.3934V12.054C12.0541 10.1902 12.7737 8.3985 14.0626 7.05238C15.3516 5.70627 17.1105 4.90971 18.9725 4.82883L19.2864 4.82159ZM19.2864 7.71455C18.1795 7.71449 17.1145 8.13739 16.3091 8.89673C15.5038 9.65607 15.0191 10.6944 14.9542 11.7994L14.9469 12.054V16.3934C14.9458 17.523 15.3852 18.6084 16.1718 19.4192C16.9583 20.2299 18.0299 20.702 19.159 20.7352C20.2881 20.7683 21.3856 20.3599 22.2183 19.5967C23.0511 18.8335 23.5534 17.7757 23.6186 16.648L23.6258 16.3934V12.054C23.6258 10.9031 23.1686 9.79934 22.3548 8.98554C21.541 8.17174 20.4373 7.71455 19.2864 7.71455V7.71455Z" fill="#001C38"/>
</svg>
